<svg width="64" height="64" viewBox="0 0 64 64" fill="none" xmlns="http://www.w3.org/2000/svg">
<rect x="3" y="3" width="58" height="58" rx="20" fill="black"/>
<path d="M13.0002 41.7889C13.0002 36.6652 17.1842 32.5117 22.2891 32.5117C27.344 32.5117 31.4869 36.6246 31.4869 41.6979C31.4869 46.7711 27.3891 50.8838 22.3343 50.8838H13.0002V41.7889Z" fill="white"/>
<path d="M50.9998 51H41.6657C36.6109 51 32.5132 46.8871 32.5132 41.8139C32.5132 36.7406 36.656 32.6277 41.7109 32.6277C46.8158 32.6277 50.9998 36.7814 50.9998 41.9049V51Z" fill="white"/>
<path d="M51 22.2108C51 27.3344 46.816 31.4879 41.7111 31.4879C36.6564 31.4879 32.5134 27.3752 32.5134 22.3019C32.5134 17.2285 36.6111 13.1158 41.666 13.1158H51V22.2108Z" fill="white"/>
<path d="M13 13H22.3341C27.3889 13 31.4866 17.1127 31.4866 22.1861C31.4866 27.2594 27.3438 31.3721 22.2889 31.3721C17.184 31.3721 13 27.2186 13 22.095V13Z" fill="white"/>
</svg>
