<svg width="64" height="64" viewBox="0 0 64 64" fill="none" xmlns="http://www.w3.org/2000/svg">
<rect x="3" y="3" width="58" height="58" rx="20" fill="#4299E1"/>
<rect x="3" y="3" width="58" height="58" rx="20" fill="#000F93"/>
<path d="M17.6 16C16.7163 16 16 16.7163 16 17.6V27.2C16 28.0837 16.7163 28.8 17.6 28.8H27.2C28.0837 28.8 28.8 28.0837 28.8 27.2V17.6C28.8 16.7163 28.0837 16 27.2 16H17.6Z" fill="url(#paint0_radial_141_11)"/>
<path d="M33.6 17.6C33.6 16.7163 32.8837 16 32 16C31.1163 16 30.4 16.7163 30.4 17.6V27.2C30.4 28.0837 31.1163 28.8 32 28.8C32.8837 28.8 33.6 28.0837 33.6 27.2V17.6Z" fill="url(#paint1_radial_141_11)"/>
<path d="M36.8 16C35.9163 16 35.2 16.7163 35.2 17.6V27.2C35.2 28.0837 35.9163 28.8 36.8 28.8H46.4C47.2837 28.8 48 28.0837 48 27.2V17.6C48 16.7163 47.2837 16 46.4 16H36.8Z" fill="url(#paint2_radial_141_11)"/>
<path d="M17.6 30.4C16.7163 30.4 16 31.1163 16 32C16 32.8837 16.7163 33.6 17.6 33.6H46.4C47.2837 33.6 48 32.8837 48 32C48 31.1163 47.2837 30.4 46.4 30.4H17.6Z" fill="url(#paint3_radial_141_11)"/>
<path d="M17.6 35.2C16.7163 35.2 16 35.9163 16 36.8V46.4C16 47.2837 16.7163 48 17.6 48H27.2C28.0837 48 28.8 47.2837 28.8 46.4V36.8C28.8 35.9163 28.0837 35.2 27.2 35.2H17.6Z" fill="url(#paint4_radial_141_11)"/>
<path d="M35.2 36.8C35.2 35.9163 34.4837 35.2 33.6 35.2C32.7163 35.2 32 35.9163 32 36.8V46.4C32 47.2837 32.7163 48 33.6 48C34.4837 48 35.2 47.2837 35.2 46.4V36.8Z" fill="url(#paint5_radial_141_11)"/>
<path d="M41.6 36.8C41.6 35.9163 40.8837 35.2 40 35.2C39.1163 35.2 38.4 35.9163 38.4 36.8V46.4C38.4 47.2837 39.1163 48 40 48C40.8837 48 41.6 47.2837 41.6 46.4V36.8Z" fill="url(#paint6_radial_141_11)"/>
<path d="M48 36.8C48 35.9163 47.2837 35.2 46.4 35.2C45.5163 35.2 44.8 35.9163 44.8 36.8V46.4C44.8 47.2837 45.5163 48 46.4 48C47.2837 48 48 47.2837 48 46.4V36.8Z" fill="url(#paint7_radial_141_11)"/>
<defs>
<radialGradient id="paint0_radial_141_11" cx="0" cy="0" r="1" gradientUnits="userSpaceOnUse" gradientTransform="translate(24.5 24) rotate(77.0054) scale(33.3542 44.4722)">
<stop stop-color="#FFDE9F"/>
<stop offset="1" stop-color="white"/>
</radialGradient>
<radialGradient id="paint1_radial_141_11" cx="0" cy="0" r="1" gradientUnits="userSpaceOnUse" gradientTransform="translate(24.5 24) rotate(77.0054) scale(33.3542 44.4722)">
<stop stop-color="#FFDE9F"/>
<stop offset="1" stop-color="white"/>
</radialGradient>
<radialGradient id="paint2_radial_141_11" cx="0" cy="0" r="1" gradientUnits="userSpaceOnUse" gradientTransform="translate(24.5 24) rotate(77.0054) scale(33.3542 44.4722)">
<stop stop-color="#FFDE9F"/>
<stop offset="1" stop-color="white"/>
</radialGradient>
<radialGradient id="paint3_radial_141_11" cx="0" cy="0" r="1" gradientUnits="userSpaceOnUse" gradientTransform="translate(24.5 24) rotate(77.0054) scale(33.3542 44.4722)">
<stop stop-color="#FFDE9F"/>
<stop offset="1" stop-color="white"/>
</radialGradient>
<radialGradient id="paint4_radial_141_11" cx="0" cy="0" r="1" gradientUnits="userSpaceOnUse" gradientTransform="translate(24.5 24) rotate(77.0054) scale(33.3542 44.4722)">
<stop stop-color="#FFDE9F"/>
<stop offset="1" stop-color="white"/>
</radialGradient>
<radialGradient id="paint5_radial_141_11" cx="0" cy="0" r="1" gradientUnits="userSpaceOnUse" gradientTransform="translate(24.5 24) rotate(77.0054) scale(33.3542 44.4722)">
<stop stop-color="#FFDE9F"/>
<stop offset="1" stop-color="white"/>
</radialGradient>
<radialGradient id="paint6_radial_141_11" cx="0" cy="0" r="1" gradientUnits="userSpaceOnUse" gradientTransform="translate(24.5 24) rotate(77.0054) scale(33.3542 44.4722)">
<stop stop-color="#FFDE9F"/>
<stop offset="1" stop-color="white"/>
</radialGradient>
<radialGradient id="paint7_radial_141_11" cx="0" cy="0" r="1" gradientUnits="userSpaceOnUse" gradientTransform="translate(24.5 24) rotate(77.0054) scale(33.3542 44.4722)">
<stop stop-color="#FFDE9F"/>
<stop offset="1" stop-color="white"/>
</radialGradient>
</defs>
</svg>
