<svg xmlns="http://www.w3.org/2000/svg" width="357" height="96" fill="none" viewBox="0 0 357 96">
  <style>
    path {
    fill:#888888;
    }
  </style>
  <path fill="#fff" fill-rule="evenodd" d="M0 49.217C0 22 21.839 0 48.854 0c26.934 0 48.853 22 48.773 49.217 0 21.756-13.993 40.171-33.405 46.691-2.426.489-3.316-1.06-3.316-2.364 0-.54.009-1.485.02-2.748.024-2.54.06-6.369.06-10.778 0-4.645-1.536-7.578-3.316-9.126 10.92-1.223 22.324-5.378 22.324-24.283 0-5.378-1.86-9.778-5.015-13.2.485-1.222 2.185-6.275-.485-13.038 0 0-4.125-1.304-13.427 5.052a46.983 46.983 0 0 0-12.213-1.63 46.971 46.971 0 0 0-12.214 1.63c-9.301-6.356-13.426-5.052-13.426-5.052-2.67 6.763-.971 11.816-.486 13.038-3.074 3.422-5.014 7.822-5.014 13.2 0 18.905 11.404 23.142 22.243 24.283-1.375 1.222-2.67 3.422-3.074 6.6-2.831 1.304-9.868 3.422-14.235-4.074 0 0-2.589-4.726-7.523-5.052 0 0-4.772 0-.324 3.015 0 0 3.236 1.466 5.42 7.17 0 0 2.83 8.801 16.42 5.867 0 2.665.034 5.26.058 7.055.012.95.022 1.677.022 2.072 0 1.303-.889 2.852-3.316 2.362C13.993 89.389 0 70.973 0 49.217Zm164.031-5.398h-20.079a.934.934 0 0 0-.873.584.963.963 0 0 0-.07.364v9.869a.96.96 0 0 0 .276.67.952.952 0 0 0 .667.277h7.83v12.272s-1.759.6-6.636.6c-5.74 0-13.755-2.108-13.755-19.832 0-17.723 8.36-20.065 16.197-20.065 6.111 0 9.087.974 10.975 1.591.21.069.406.133.591.19a.944.944 0 0 0 1.108-.744.936.936 0 0 0 .02-.183l2.236-9.542a.887.887 0 0 0-.088-.412.886.886 0 0 0-.27-.322c-.757-.547-5.362-3.136-17.001-3.136C131.756 16 118 21.739 118 49.31 118 76.884 133.746 81 147.017 81c10.982 0 17.651-4.724 17.651-4.724a.813.813 0 0 0 .305-.714V44.767a.95.95 0 0 0-.942-.948Zm103.508-24.483a.943.943 0 0 0-.545-.896.93.93 0 0 0-.357-.085h-11.281a.932.932 0 0 0-.931.594.947.947 0 0 0-.064.387v21.947h-17.624V19.336a.955.955 0 0 0-.272-.67.933.933 0 0 0-.664-.277h-11.28a.924.924 0 0 0-.681.268.949.949 0 0 0-.281.68V78.81a.807.807 0 0 0 .015.176.937.937 0 0 0 .721.755l.018.004.018.004a.937.937 0 0 0 .163.016h11.281a.926.926 0 0 0 .296-.05l.007-.003a.943.943 0 0 0 .632-.901V53.367h17.651v25.457a.96.96 0 0 0 .271.672.946.946 0 0 0 .665.282h11.34a.946.946 0 0 0 .662-.284.957.957 0 0 0 .273-.67l-.033-59.489Zm-83.433 3.716a7.371 7.371 0 0 1-.847 9.296 7.304 7.304 0 0 1-2.377 1.61 7.262 7.262 0 0 1-6.858-.666 7.33 7.33 0 0 1-2.688-3.283 7.373 7.373 0 0 1 1.549-7.99 7.29 7.29 0 0 1 3.719-2.025 7.26 7.26 0 0 1 4.211.387 7.31 7.31 0 0 1 3.291 2.671Zm.455 15.736a.94.94 0 0 0-.935-.948h-11.281a1.081 1.081 0 0 0-.975 1.061v39.37c0 1.16.717 1.501 1.646 1.501h10.152c1.115 0 1.387-.547 1.387-1.515l.006-39.47Zm114.729-.854h11.221a.95.95 0 0 1 .942.947v39.97a.95.95 0 0 1-.273.668.939.939 0 0 1-.662.28h-7.246a.982.982 0 0 1-.823-.514 22.938 22.938 0 0 1-.411-2.429s-5.972 4.117-13.371 4.117c-9.024 0-15.58-2.896-15.58-14.733V38.88a.946.946 0 0 1 .269-.667.932.932 0 0 1 .66-.28h11.393a.926.926 0 0 1 .659.28.947.947 0 0 1 .27.667v25.43c0 3.99 1.075 5.832 5.122 5.832a12.646 12.646 0 0 0 6.901-2.095V38.881a.945.945 0 0 1 .929-.947Zm41.898-1.342a20.982 20.982 0 0 0-10.71 2.863V19.336a1.01 1.01 0 0 0-.009-.133l-.007-.047-.008-.038a.93.93 0 0 0-.912-.73h-11.34a.931.931 0 0 0-.918.762.97.97 0 0 0-.018.186v59.475a.96.96 0 0 0 .271.672.948.948 0 0 0 .665.282h7.87a.947.947 0 0 0 .822-.507c.226-.9.386-1.817.478-2.742 0 0 4.645 4.417 13.417 4.417 10.305 0 16.211-5.258 16.211-23.602 0-18.343-9.409-20.739-15.812-20.739Zm-4.427 33.531a13.425 13.425 0 0 1-6.536-1.895V49.364a14.904 14.904 0 0 1 5.8-1.895c4.041-.36 7.963.867 7.963 10.556-.027 10.243-1.785 12.265-7.227 12.098Zm-128.179-32.29h8.48a.941.941 0 0 1 .943.955v9.162a.96.96 0 0 1-.272.671.946.946 0 0 1-.304.208.937.937 0 0 1-.36.075h-8.48v16.728c0 2.523 1.413 4.471 5.58 4.471.804 0 1.592-.076 2.195-.135.373-.036.674-.065.864-.065a.943.943 0 0 1 .66.282.958.958 0 0 1 .276.666v8.047a.884.884 0 0 1-.531.854 25.69 25.69 0 0 1-6.735 1.115c-6.138 0-15.262-1.282-15.262-14.36V48.904h-5.972a.939.939 0 0 1-.617-.293.954.954 0 0 1-.259-.635v-7.34a.946.946 0 0 1 .664-.907c.391-.114 6.184-1.522 6.184-1.522v-11.67c0-.434.213-.634.664-.634h11.572c.491 0 .71.24.71.667v11.264Z" clip-rule="evenodd"/>
</svg>
